<svg data-v-423bf9ae="" xmlns="http://www.w3.org/2000/svg" viewBox="0 0 392.4765251095799 60" class="font"><!----><!----><!----><g data-v-423bf9ae="" id="eb7a4ce0-c095-4c93-ac74-db8737a88783" fill="black" transform="matrix(5.352925777435303,0,0,5.352925777435303,-2.6229500770568848,-13.76331901550293)"><path d="M6.23 6.47L6.23 6.47L6.23 6.47Q5.96 5.95 5.60 5.67L5.60 5.67L5.60 5.67Q5.24 5.39 4.87 5.29L4.87 5.29L4.87 5.29Q4.49 5.19 4.15 5.26L4.15 5.26L4.15 5.26Q3.81 5.33 3.58 5.50L3.58 5.50L3.58 5.50Q3.36 5.67 3.30 5.91L3.30 5.91L3.30 5.91Q3.25 6.15 3.44 6.40L3.44 6.40L3.44 6.40Q3.71 6.73 4.20 7.13L4.20 7.13L4.20 7.13Q4.69 7.53 5.21 7.98L5.21 7.98L5.21 7.98Q5.74 8.43 6.22 8.90L6.22 8.90L6.22 8.90Q6.69 9.38 6.92 9.87L6.92 9.87L6.92 9.87Q7.20 10.50 7.15 11.19L7.15 11.19L7.15 11.19Q7.11 11.89 6.75 12.46L6.75 12.46L6.75 12.46Q6.40 13.03 5.74 13.41L5.74 13.41L5.74 13.41Q5.08 13.78 4.14 13.78L4.14 13.78L4.14 13.78Q3.58 13.78 3.04 13.60L3.04 13.60L3.04 13.60Q2.51 13.43 2.03 13.11L2.03 13.11L2.03 13.11Q1.55 12.80 1.16 12.36L1.16 12.36L1.16 12.36Q0.76 11.93 0.49 11.40L0.49 11.40L1.96 10.32L1.96 10.32Q2.09 10.58 2.28 10.84L2.28 10.84L2.28 10.84Q2.48 11.09 2.72 11.31L2.72 11.31L2.72 11.31Q2.95 11.52 3.21 11.68L3.21 11.68L3.21 11.68Q3.47 11.84 3.71 11.91L3.71 11.91L3.71 11.91Q4.13 12.03 4.50 11.94L4.50 11.94L4.50 11.94Q4.87 11.86 5.08 11.63L5.08 11.63L5.08 11.63Q5.29 11.40 5.29 11.05L5.29 11.05L5.29 11.05Q5.29 10.71 4.97 10.30L4.97 10.30L4.97 10.30Q4.62 9.87 4.03 9.41L4.03 9.41L4.03 9.41Q3.44 8.95 2.87 8.43L2.87 8.43L2.87 8.43Q2.30 7.91 1.88 7.31L1.88 7.31L1.88 7.31Q1.46 6.71 1.46 5.99L1.46 5.99L1.46 5.99Q1.46 5.45 1.68 4.98L1.68 4.98L1.68 4.98Q1.90 4.52 2.27 4.20L2.27 4.20L2.27 4.20Q2.65 3.88 3.14 3.70L3.14 3.70L3.14 3.70Q3.63 3.51 4.16 3.51L4.16 3.51L4.16 3.51Q4.83 3.51 5.41 3.70L5.41 3.70L5.41 3.70Q5.99 3.89 6.36 4.24L6.36 4.24L6.36 4.24Q6.62 4.48 6.76 4.77L6.76 4.77L6.76 4.77Q6.90 5.07 6.90 5.37L6.90 5.37L6.90 5.37Q6.90 5.67 6.74 5.96L6.74 5.96L6.74 5.96Q6.58 6.24 6.23 6.47ZM10.12 3.72L10.12 3.72L10.12 13.52L8.36 13.52L8.36 5.15L8.36 5.15Q8.36 4.48 8.83 4.10L8.83 4.10L8.83 4.10Q9.31 3.71 10.12 3.72ZM16.93 13.52L16.93 12.73L16.93 12.73Q16.39 13.24 15.77 13.48L15.77 13.48L15.77 13.48Q15.15 13.72 14.52 13.70L14.52 13.70L14.52 13.70Q13.89 13.68 13.29 13.41L13.29 13.41L13.29 13.41Q12.70 13.15 12.24 12.65L12.24 12.65L12.24 12.65Q11.79 12.15 11.52 11.46L11.52 11.46L11.52 11.46Q11.24 10.77 11.24 9.88L11.24 9.88L11.24 9.88Q11.24 9.04 11.54 8.33L11.54 8.33L11.54 8.33Q11.83 7.62 12.33 7.11L12.33 7.11L12.33 7.11Q12.82 6.61 13.46 6.34L13.46 6.34L13.46 6.34Q14.10 6.06 14.78 6.09L14.78 6.09L14.78 6.09Q15.46 6.12 15.86 6.39L15.86 6.39L15.86 6.39Q16.27 6.66 16.46 7.03L16.46 7.03L16.46 7.03Q16.65 7.39 16.65 7.76L16.65 7.76L16.65 7.76Q16.66 8.13 16.53 8.36L16.53 8.36L16.53 8.36Q16.30 8.01 15.86 7.89L15.86 7.89L15.86 7.89Q15.43 7.77 15.02 7.77L15.02 7.77L15.02 7.77Q14.38 7.77 13.94 8.09L13.94 8.09L13.94 8.09Q13.51 8.40 13.29 8.88L13.29 8.88L13.29 8.88Q13.06 9.35 13.06 9.91L13.06 9.91L13.06 9.91Q13.05 10.46 13.27 10.93L13.27 10.93L13.27 10.93Q13.48 11.41 13.92 11.73L13.92 11.73L13.92 11.73Q14.36 12.04 15.02 12.04L15.02 12.04L15.02 12.04Q15.58 12.04 15.95 11.79L15.95 11.79L15.95 11.79Q16.31 11.54 16.53 11.14L16.53 11.14L16.53 11.14Q16.74 10.74 16.84 10.24L16.84 10.24L16.84 10.24Q16.93 9.74 16.93 9.25L16.93 9.25L16.93 7.04L16.93 6.27L18.75 6.27L18.75 13.52L16.93 13.52ZM21.97 6.29L21.97 7.11L21.97 7.11Q22.08 6.86 22.30 6.68L22.30 6.68L22.30 6.68Q22.53 6.50 22.81 6.38L22.81 6.38L22.81 6.38Q23.09 6.26 23.38 6.19L23.38 6.19L23.38 6.19Q23.67 6.12 23.93 6.10L23.93 6.10L23.93 6.10Q24.46 6.06 24.98 6.24L24.98 6.24L24.98 6.24Q25.51 6.41 25.93 6.85L25.93 6.85L25.93 6.85Q26.05 6.99 26.16 7.13L26.16 7.13L26.16 7.13Q26.26 7.28 26.33 7.46L26.33 7.46L26.33 7.46Q26.38 7.15 26.59 6.91L26.59 6.91L26.59 6.91Q26.80 6.66 27.10 6.49L27.10 6.49L27.10 6.49Q27.40 6.31 27.75 6.22L27.75 6.22L27.75 6.22Q28.10 6.12 28.43 6.10L28.43 6.10L28.43 6.10Q28.98 6.06 29.51 6.24L29.51 6.24L29.51 6.24Q30.03 6.41 30.48 6.85L30.48 6.85L30.48 6.85Q31.11 7.50 31.11 8.74L31.11 8.74L31.11 13.52L29.29 13.52L29.29 13.52Q29.29 13.29 29.29 12.88L29.29 12.88L29.29 12.88Q29.29 12.47 29.28 11.99L29.28 11.99L29.28 11.99Q29.27 11.51 29.27 10.99L29.27 10.99L29.27 10.99Q29.27 10.47 29.26 10.01L29.26 10.01L29.26 10.01Q29.25 9.55 29.23 9.18L29.23 9.18L29.23 9.18Q29.20 8.82 29.18 8.65L29.18 8.65L29.18 8.65Q29.02 7.74 28.15 7.70L28.15 7.70L28.15 7.70Q27.66 7.69 27.34 7.98L27.34 7.98L27.34 7.98Q27.01 8.27 27.02 8.69L27.02 8.69L27.02 8.69Q26.89 8.65 26.77 8.55L26.77 8.55L26.77 8.55Q26.64 8.44 26.54 8.30L26.54 8.30L26.54 8.30Q26.56 8.41 26.56 8.52L26.56 8.52L26.56 8.52Q26.56 8.62 26.56 8.74L26.56 8.74L26.56 13.52L24.77 13.52L24.77 13.52Q24.77 13.29 24.77 12.88L24.77 12.88L24.77 12.88Q24.78 12.47 24.78 11.99L24.78 11.99L24.78 11.99Q24.78 11.51 24.78 10.99L24.78 10.99L24.78 10.99Q24.78 10.47 24.77 10.01L24.77 10.01L24.77 10.01Q24.75 9.55 24.72 9.18L24.72 9.18L24.72 9.18Q24.70 8.82 24.65 8.65L24.65 8.65L24.65 8.65Q24.54 8.20 24.23 7.98L24.23 7.98L24.23 7.98Q23.93 7.76 23.56 7.76L23.56 7.76L23.56 7.76Q23.07 7.76 22.81 8.02L22.81 8.02L22.81 8.02Q22.54 8.27 22.54 8.69L22.54 8.69L22.54 8.69Q22.37 8.64 22.20 8.46L22.20 8.46L22.20 8.46Q22.04 8.29 21.97 8.09L21.97 8.09L21.97 13.52L20.15 13.52L20.15 6.29L21.97 6.29ZM34.59 5.01L32.82 3.01L32.82 3.01Q33.21 2.73 33.51 2.63L33.51 2.63L33.51 2.63Q33.81 2.53 34.05 2.60L34.05 2.60L34.05 2.60Q34.30 2.67 34.51 2.91L34.51 2.91L34.51 2.91Q34.72 3.14 34.96 3.53L34.96 3.53L35.88 5.10L35.88 5.10Q35.55 5.29 35.19 5.28L35.19 5.28L35.19 5.28Q34.83 5.26 34.59 5.01L34.59 5.01ZM46.28 7.22L46.28 7.22L46.28 7.22Q46.14 6.79 45.79 6.43L45.79 6.43L45.79 6.43Q45.43 6.06 44.93 5.81L44.93 5.81L44.93 5.81Q44.42 5.56 43.83 5.43L43.83 5.43L43.83 5.43Q43.23 5.31 42.62 5.35L42.62 5.35L42.62 5.35Q42.01 5.39 41.44 5.62L41.44 5.62L41.44 5.62Q40.87 5.85 40.40 6.30L40.40 6.30L40.40 6.30Q39.89 6.80 39.66 7.42L39.66 7.42L39.66 7.42Q39.42 8.04 39.44 8.67L39.44 8.67L39.44 8.67Q39.45 9.30 39.70 9.89L39.70 9.89L39.70 9.89Q39.94 10.49 40.40 10.95L40.40 10.95L40.40 10.95Q40.85 11.41 41.49 11.69L41.49 11.69L41.49 11.69Q42.13 11.97 42.92 11.97L42.92 11.97L42.92 11.97Q43.88 11.97 44.55 11.56L44.55 11.56L44.55 11.56Q45.22 11.16 45.49 10.30L45.49 10.30L42.90 10.30L42.90 10.30Q42.53 10.30 42.25 10.15L42.25 10.15L42.25 10.15Q41.97 10.00 41.80 9.75L41.80 9.75L41.80 9.75Q41.62 9.51 41.54 9.20L41.54 9.20L41.54 9.20Q41.45 8.89 41.48 8.57L41.48 8.57L47.56 8.57L47.56 8.57Q47.67 9.84 47.28 10.82L47.28 10.82L47.28 10.82Q46.89 11.79 46.18 12.45L46.18 12.45L46.18 12.45Q45.47 13.10 44.55 13.44L44.55 13.44L44.55 13.44Q43.62 13.78 42.69 13.76L42.69 13.76L42.69 13.76Q42.04 13.75 41.41 13.59L41.41 13.59L41.41 13.59Q40.77 13.43 40.19 13.11L40.19 13.11L40.19 13.11Q39.61 12.80 39.11 12.32L39.11 12.32L39.11 12.32Q38.61 11.84 38.26 11.21L38.26 11.21L38.26 11.21Q37.84 10.49 37.68 9.71L37.68 9.71L37.68 9.71Q37.52 8.93 37.58 8.18L37.58 8.18L37.58 8.18Q37.65 7.42 37.93 6.72L37.93 6.72L37.93 6.72Q38.21 6.02 38.67 5.43L38.67 5.43L38.67 5.43Q39.34 4.58 40.39 4.05L40.39 4.05L40.39 4.05Q41.44 3.53 42.80 3.53L42.80 3.53L42.80 3.53Q43.81 3.53 44.71 3.82L44.71 3.82L44.71 3.82Q45.61 4.10 46.18 4.61L46.18 4.61L46.18 4.61Q46.75 5.11 46.83 5.78L46.83 5.78L46.83 5.78Q46.91 6.45 46.28 7.22ZM48.85 13.52L48.85 6.24L50.41 6.24L50.41 7.17L50.41 7.17Q50.65 6.68 51.02 6.39L51.02 6.39L51.02 6.39Q51.39 6.10 51.84 6.08L51.84 6.08L51.84 6.08Q52.43 6.03 52.79 6.29L52.79 6.29L52.79 6.29Q53.16 6.55 53.30 6.92L53.30 6.92L53.30 6.92Q53.45 7.29 53.38 7.68L53.38 7.68L53.38 7.68Q53.31 8.06 53.00 8.29L53.00 8.29L53.00 8.29Q52.88 7.94 52.52 7.83L52.52 7.83L52.52 7.83Q52.16 7.73 51.77 7.86L51.77 7.86L51.77 7.86Q51.38 7.99 51.06 8.36L51.06 8.36L51.06 8.36Q50.75 8.72 50.69 9.31L50.69 9.31L50.69 9.31Q50.67 9.65 50.67 9.98L50.67 9.98L50.67 9.98Q50.67 10.30 50.67 10.58L50.67 10.58L50.67 13.52L48.85 13.52ZM59.63 13.52L59.63 12.73L59.63 12.73Q59.09 13.24 58.47 13.48L58.47 13.48L58.47 13.48Q57.85 13.72 57.22 13.70L57.22 13.70L57.22 13.70Q56.59 13.68 55.99 13.41L55.99 13.41L55.99 13.41Q55.40 13.15 54.94 12.65L54.94 12.65L54.94 12.65Q54.49 12.15 54.21 11.46L54.21 11.46L54.21 11.46Q53.94 10.77 53.94 9.88L53.94 9.88L53.94 9.88Q53.94 9.04 54.24 8.33L54.24 8.33L54.24 8.33Q54.53 7.62 55.03 7.11L55.03 7.11L55.03 7.11Q55.52 6.61 56.16 6.34L56.16 6.34L56.16 6.34Q56.80 6.06 57.48 6.09L57.48 6.09L57.48 6.09Q58.16 6.12 58.56 6.39L58.56 6.39L58.56 6.39Q58.97 6.66 59.16 7.03L59.16 7.03L59.16 7.03Q59.35 7.39 59.35 7.76L59.35 7.76L59.35 7.76Q59.36 8.13 59.23 8.36L59.23 8.36L59.23 8.36Q59.00 8.01 58.56 7.89L58.56 7.89L58.56 7.89Q58.13 7.77 57.72 7.77L57.72 7.77L57.72 7.77Q57.08 7.77 56.64 8.09L56.64 8.09L56.64 8.09Q56.21 8.40 55.99 8.88L55.99 8.88L55.99 8.88Q55.76 9.35 55.75 9.91L55.75 9.91L55.75 9.91Q55.75 10.46 55.96 10.93L55.96 10.93L55.96 10.93Q56.18 11.41 56.62 11.73L56.62 11.73L56.62 11.73Q57.06 12.04 57.72 12.04L57.72 12.04L57.72 12.04Q58.28 12.04 58.65 11.79L58.65 11.79L58.65 11.79Q59.01 11.54 59.23 11.14L59.23 11.14L59.23 11.14Q59.44 10.74 59.53 10.24L59.53 10.24L59.53 10.24Q59.63 9.74 59.63 9.25L59.63 9.25L59.63 7.04L59.63 6.27L61.45 6.27L61.45 13.52L59.63 13.52ZM64.67 6.29L64.67 7.11L64.67 7.11Q64.78 6.86 65.00 6.68L65.00 6.68L65.00 6.68Q65.23 6.50 65.51 6.38L65.51 6.38L65.51 6.38Q65.79 6.26 66.08 6.19L66.08 6.19L66.08 6.19Q66.37 6.12 66.63 6.10L66.63 6.10L66.63 6.10Q67.16 6.06 67.68 6.24L67.68 6.24L67.68 6.24Q68.21 6.41 68.63 6.85L68.63 6.85L68.63 6.85Q68.75 6.99 68.86 7.13L68.86 7.13L68.86 7.13Q68.96 7.28 69.03 7.46L69.03 7.46L69.03 7.46Q69.08 7.15 69.29 6.91L69.29 6.91L69.29 6.91Q69.50 6.66 69.80 6.49L69.80 6.49L69.80 6.49Q70.10 6.31 70.45 6.22L70.45 6.22L70.45 6.22Q70.80 6.12 71.13 6.10L71.13 6.10L71.13 6.10Q71.68 6.06 72.20 6.24L72.20 6.24L72.20 6.24Q72.73 6.41 73.18 6.85L73.18 6.85L73.18 6.85Q73.81 7.50 73.81 8.74L73.81 8.74L73.81 13.52L71.99 13.52L71.99 13.52Q71.99 13.29 71.99 12.88L71.99 12.88L71.99 12.88Q71.99 12.47 71.98 11.99L71.98 11.99L71.98 11.99Q71.97 11.51 71.97 10.99L71.97 10.99L71.97 10.99Q71.97 10.47 71.96 10.01L71.96 10.01L71.96 10.01Q71.95 9.55 71.92 9.18L71.92 9.18L71.92 9.18Q71.90 8.82 71.88 8.65L71.88 8.65L71.88 8.65Q71.72 7.74 70.85 7.70L70.85 7.70L70.85 7.70Q70.36 7.69 70.03 7.98L70.03 7.98L70.03 7.98Q69.71 8.27 69.72 8.69L69.72 8.69L69.72 8.69Q69.59 8.65 69.47 8.55L69.47 8.55L69.47 8.55Q69.34 8.44 69.24 8.30L69.24 8.30L69.24 8.30Q69.26 8.41 69.26 8.52L69.26 8.52L69.26 8.52Q69.26 8.62 69.26 8.74L69.26 8.74L69.26 13.52L67.47 13.52L67.47 13.52Q67.47 13.29 67.47 12.88L67.47 12.88L67.47 12.88Q67.48 12.47 67.48 11.99L67.48 11.99L67.48 11.99Q67.48 11.51 67.48 10.99L67.48 10.99L67.48 10.99Q67.48 10.47 67.47 10.01L67.47 10.01L67.47 10.01Q67.45 9.55 67.42 9.18L67.42 9.18L67.42 9.18Q67.40 8.82 67.35 8.65L67.35 8.65L67.35 8.65Q67.24 8.20 66.93 7.98L66.93 7.98L66.93 7.98Q66.63 7.76 66.26 7.76L66.26 7.76L66.26 7.76Q65.77 7.76 65.51 8.02L65.51 8.02L65.51 8.02Q65.24 8.27 65.24 8.69L65.24 8.69L65.24 8.69Q65.07 8.64 64.90 8.46L64.90 8.46L64.90 8.46Q64.74 8.29 64.67 8.09L64.67 8.09L64.67 13.52L62.85 13.52L62.85 6.29L64.67 6.29Z"></path></g><!----><!----></svg>